<svg id="Layer_1" enable-background="new 0 0 58 58" height="512" viewBox="0 0 58 58" width="512" xmlns="http://www.w3.org/2000/svg"><path d="m52 16h-4c-.553 0-1 .447-1 1v2c0 1.654 1.346 3 3 3s3-1.346 3-3v-2c0-.553-.447-1-1-1z" fill="#ff9a00"/><path d="m44.356 5.908c-.047-.514-.479-.908-.996-.908h-16.36c-.552 0-1 .447-1 1v4c0 .553.448 1 1 1h16.73c.281 0 .55-.118.739-.326s.282-.486.257-.766z" fill="#ff9a00"/><path d="m26 3h-9c-.552 0-1 .447-1 1v8c0 .553.448 1 1 1h9c1.103 0 2-.897 2-2v-6c0-1.102-.897-2-2-2z" fill="#00b7be"/><path d="m13 14h-6c-.552 0-1 .447-1 1v23.36c0 .416.258.789.647.936.39.149.829.039 1.104-.275.57-.649 1.39-1.021 2.249-1.021s1.679.372 2.249 1.021c.194.221.469.34.751.34.119 0 .238-.021.353-.064.389-.147.647-.52.647-.937v-23.36c0-.553-.448-1-1-1z" fill="#ff9a00"/><path d="m16 40h-2c-.552 0-1 .447-1 1 0 1.654-1.346 3-3 3s-3-1.346-3-3c0-.553-.448-1-1-1h-2c-1.103 0-2 .897-2 2v15c0 .553.448 1 1 1h14c.552 0 1-.447 1-1v-15c0-1.102-.897-2-2-2z" fill="#00d9e0"/><path d="m16 0h-12c-1.103 0-2 .898-2 2v12c0 1.103.897 2 2 2h12c1.103 0 2-.897 2-2v-12c0-1.102-.897-2-2-2z" fill="#00d9e0"/><path d="m10 36c-1.434 0-2.801.619-3.753 1.702-.804.921-1.247 2.092-1.247 3.298 0 2.757 2.243 5 5 5s5-2.243 5-5c0-1.206-.443-2.377-1.249-3.3-.95-1.081-2.317-1.7-3.751-1.7z" fill="#00e8f2"/><circle cx="10" cy="8" fill="#00e8f2" r="5"/><path d="m57.738 2.325c-.189-.207-.457-.325-.738-.325h-4c-.553 0-1 .447-1 1v11c0 .553.447 1 1 1h3c.518 0 .949-.395.996-.909l1-11c.025-.28-.068-.558-.258-.766z" fill="#00b7be"/><path d="m47 2h-4c-.281 0-.549.118-.738.325s-.283.485-.258.765l1 11c.047.516.478.91.996.91h3c.553 0 1-.447 1-1v-11c0-.553-.447-1-1-1z" fill="#00b7be"/><path d="m52 0h-4c-1.103 0-2 .897-2 2v14c0 1.103.897 2 2 2h4c1.103 0 2-.897 2-2v-14c0-1.102-.897-2-2-2z" fill="#00d9e0"/><path d="m40 36h-6c-.553 0-1 .447-1 1v18c0 .553.447 1 1 1h6c.553 0 1-.447 1-1v-18c0-.553-.447-1-1-1z" fill="#8b8992"/><path d="m57.851 32.475c-.183-.295-.504-.475-.851-.475h-40c-.347 0-.668.18-.851.475s-.199.663-.044.973l2 4c.17.338.516.552.895.552h36c.379 0 .725-.214.895-.553l2-4c.155-.309.138-.677-.044-.972z" fill="#aeadb3"/><path d="m48 54h-22c-.552 0-1 .447-1 1v2c0 .553.448 1 1 1s1-.447 1-1v-1h20v1c0 .553.447 1 1 1s1-.447 1-1v-2c0-.553-.447-1-1-1z" fill="#aeadb3"/><g fill="#00979d"><path d="m10 58c-.552 0-1-.447-1-1v-6c0-.553.448-1 1-1s1 .447 1 1v6c0 .553-.448 1-1 1z"/><path d="m10 36c-1.434 0-2.801.619-3.753 1.702-.804.921-1.247 2.092-1.247 3.298 0 2.757 2.243 5 5 5s5-2.243 5-5c0-1.206-.443-2.377-1.249-3.3-.95-1.081-2.317-1.7-3.751-1.7zm0 8c-1.654 0-3-1.346-3-3 0-.722.268-1.426.751-1.979.57-.649 1.39-1.021 2.249-1.021s1.679.372 2.247 1.019c.485.555.753 1.259.753 1.981 0 1.654-1.346 3-3 3z"/><path d="m10 13c2.757 0 5-2.243 5-5s-2.243-5-5-5-5 2.243-5 5 2.243 5 5 5zm0-8c1.654 0 3 1.346 3 3s-1.346 3-3 3-3-1.346-3-3 1.346-3 3-3z"/><path d="m9.29 8.71c.1.09.21.16.33.21s.25.08.38.08.26-.03.38-.08.23-.12.33-.21c.09-.101.17-.21.22-.33s.07-.25.07-.38c0-.07-.01-.13-.02-.2-.01-.06-.03-.12-.06-.18-.02-.06-.05-.12-.09-.18-.03-.05-.08-.1-.12-.149-.1-.09-.21-.16-.33-.21-.24-.101-.52-.101-.76 0-.12.049-.23.119-.33.209-.18.19-.29.44-.29.71 0 .13.03.26.08.38s.12.23.21.33z"/><path d="m10.71 40.29c-.05-.04-.1-.09-.15-.12-.06-.04-.12-.07-.18-.09-.06-.03-.12-.05-.18-.061-.33-.069-.67.04-.91.271-.09.1-.16.2-.21.33-.05.12-.08.25-.08.38 0 .27.1.52.29.71.1.09.21.16.33.21s.25.08.38.08c.27 0 .52-.101.71-.29.09-.101.16-.21.21-.33s.08-.25.08-.38-.03-.26-.08-.38c-.05-.13-.12-.23-.21-.33z"/></g><path d="m19 58h-18c-.552 0-1-.447-1-1s.448-1 1-1h18c.552 0 1 .447 1 1s-.448 1-1 1z" fill="#57555c"/></svg>