<?xml version="1.0" encoding="UTF-8"?>
<svg xmlns="http://www.w3.org/2000/svg" xmlns:xlink="http://www.w3.org/1999/xlink" width="32px" height="px" viewBox="0 0 32 32" version="1.1">
<g id="surface1">
<path style=" stroke:none;fill-rule:nonzero;fill:rgb(100%,60.392159%,0%);fill-opacity:1;" d="M 28.691406 8.828125 L 26.484375 8.828125 C 26.175781 8.828125 25.929688 9.074219 25.929688 9.378906 L 25.929688 10.484375 C 25.929688 11.394531 26.671875 12.136719 27.585938 12.136719 C 28.5 12.136719 29.242188 11.394531 29.242188 10.484375 L 29.242188 9.378906 C 29.242188 9.074219 28.996094 8.828125 28.691406 8.828125 Z M 28.691406 8.828125 "/>
<path style=" stroke:none;fill-rule:nonzero;fill:rgb(100%,60.392159%,0%);fill-opacity:1;" d="M 24.472656 3.257812 C 24.445312 2.976562 24.207031 2.757812 23.921875 2.757812 L 14.898438 2.757812 C 14.59375 2.757812 14.34375 3.003906 14.34375 3.308594 L 14.34375 5.515625 C 14.34375 5.824219 14.59375 6.070312 14.898438 6.070312 L 24.125 6.070312 C 24.28125 6.070312 24.429688 6.003906 24.535156 5.890625 C 24.640625 5.773438 24.691406 5.621094 24.675781 5.464844 Z M 24.472656 3.257812 "/>
<path style=" stroke:none;fill-rule:nonzero;fill:rgb(0%,71.764708%,74.509805%);fill-opacity:1;" d="M 14.34375 1.65625 L 9.378906 1.65625 C 9.074219 1.65625 8.828125 1.902344 8.828125 2.207031 L 8.828125 6.621094 C 8.828125 6.925781 9.074219 7.171875 9.378906 7.171875 L 14.34375 7.171875 C 14.953125 7.171875 15.449219 6.675781 15.449219 6.070312 L 15.449219 2.757812 C 15.449219 2.152344 14.953125 1.65625 14.34375 1.65625 Z M 14.34375 1.65625 "/>
<path style=" stroke:none;fill-rule:nonzero;fill:rgb(100%,60.392159%,0%);fill-opacity:1;" d="M 7.171875 7.722656 L 3.863281 7.722656 C 3.558594 7.722656 3.308594 7.972656 3.308594 8.277344 L 3.308594 21.164062 C 3.308594 21.394531 3.453125 21.597656 3.667969 21.679688 C 3.882812 21.761719 4.125 21.703125 4.277344 21.527344 C 4.589844 21.171875 5.042969 20.964844 5.515625 20.964844 C 5.992188 20.964844 6.445312 21.171875 6.757812 21.527344 C 6.863281 21.652344 7.015625 21.714844 7.171875 21.714844 C 7.238281 21.714844 7.304688 21.703125 7.367188 21.679688 C 7.582031 21.601562 7.722656 21.394531 7.722656 21.164062 L 7.722656 8.277344 C 7.722656 7.972656 7.476562 7.722656 7.171875 7.722656 Z M 7.171875 7.722656 "/>
<path style=" stroke:none;fill-rule:nonzero;fill:rgb(0%,85.09804%,87.843138%);fill-opacity:1;" d="M 8.828125 22.070312 L 7.722656 22.070312 C 7.417969 22.070312 7.171875 22.316406 7.171875 22.621094 C 7.171875 23.535156 6.429688 24.277344 5.515625 24.277344 C 4.605469 24.277344 3.863281 23.535156 3.863281 22.621094 C 3.863281 22.316406 3.613281 22.070312 3.308594 22.070312 L 2.207031 22.070312 C 1.597656 22.070312 1.101562 22.5625 1.101562 23.171875 L 1.101562 31.449219 C 1.101562 31.753906 1.351562 32 1.65625 32 L 9.378906 32 C 9.683594 32 9.929688 31.753906 9.929688 31.449219 L 9.929688 23.171875 C 9.929688 22.5625 9.4375 22.070312 8.828125 22.070312 Z M 8.828125 22.070312 "/>
<path style=" stroke:none;fill-rule:nonzero;fill:rgb(0%,85.09804%,87.843138%);fill-opacity:1;" d="M 8.828125 0 L 2.207031 0 C 1.597656 0 1.101562 0.496094 1.101562 1.101562 L 1.101562 7.722656 C 1.101562 8.332031 1.597656 8.828125 2.207031 8.828125 L 8.828125 8.828125 C 9.4375 8.828125 9.929688 8.332031 9.929688 7.722656 L 9.929688 1.101562 C 9.929688 0.496094 9.4375 0 8.828125 0 Z M 8.828125 0 "/>
<path style=" stroke:none;fill-rule:nonzero;fill:rgb(0%,90.980393%,94.901961%);fill-opacity:1;" d="M 5.515625 19.863281 C 4.726562 19.863281 3.972656 20.203125 3.445312 20.800781 C 3.003906 21.308594 2.757812 21.957031 2.757812 22.621094 C 2.757812 24.140625 3.996094 25.378906 5.515625 25.378906 C 7.039062 25.378906 8.277344 24.140625 8.277344 22.621094 C 8.277344 21.957031 8.03125 21.308594 7.585938 20.800781 C 7.0625 20.203125 6.308594 19.863281 5.515625 19.863281 Z M 5.515625 19.863281 "/>
<path style=" stroke:none;fill-rule:nonzero;fill:rgb(0%,90.980393%,94.901961%);fill-opacity:1;" d="M 8.277344 4.414062 C 8.277344 2.890625 7.039062 1.65625 5.515625 1.65625 C 3.992188 1.65625 2.757812 2.890625 2.757812 4.414062 C 2.757812 5.9375 3.992188 7.171875 5.515625 7.171875 C 7.039062 7.171875 8.277344 5.9375 8.277344 4.414062 Z M 8.277344 4.414062 "/>
<path style=" stroke:none;fill-rule:nonzero;fill:rgb(0%,71.764708%,74.509805%);fill-opacity:1;" d="M 31.855469 1.28125 C 31.75 1.167969 31.601562 1.101562 31.449219 1.101562 L 29.242188 1.101562 C 28.9375 1.101562 28.691406 1.351562 28.691406 1.65625 L 28.691406 7.722656 C 28.691406 8.027344 28.9375 8.277344 29.242188 8.277344 L 30.898438 8.277344 C 31.183594 8.277344 31.421875 8.058594 31.445312 7.773438 L 31.996094 1.707031 C 32.011719 1.550781 31.960938 1.398438 31.855469 1.28125 Z M 31.855469 1.28125 "/>
<path style=" stroke:none;fill-rule:nonzero;fill:rgb(0%,71.764708%,74.509805%);fill-opacity:1;" d="M 25.929688 1.101562 L 23.722656 1.101562 C 23.570312 1.101562 23.421875 1.167969 23.316406 1.28125 C 23.210938 1.398438 23.160156 1.550781 23.175781 1.703125 L 23.726562 7.773438 C 23.753906 8.058594 23.988281 8.277344 24.277344 8.277344 L 25.929688 8.277344 C 26.234375 8.277344 26.484375 8.027344 26.484375 7.722656 L 26.484375 1.65625 C 26.484375 1.351562 26.234375 1.101562 25.929688 1.101562 Z M 25.929688 1.101562 "/>
<path style=" stroke:none;fill-rule:nonzero;fill:rgb(0%,85.09804%,87.843138%);fill-opacity:1;" d="M 28.691406 0 L 26.484375 0 C 25.875 0 25.378906 0.496094 25.378906 1.101562 L 25.378906 8.828125 C 25.378906 9.4375 25.875 9.929688 26.484375 9.929688 L 28.691406 9.929688 C 29.296875 9.929688 29.792969 9.4375 29.792969 8.828125 L 29.792969 1.101562 C 29.792969 0.496094 29.296875 0 28.691406 0 Z M 28.691406 0 "/>
<path style=" stroke:none;fill-rule:nonzero;fill:rgb(54.509807%,53.725493%,57.254905%);fill-opacity:1;" d="M 22.070312 19.863281 L 18.757812 19.863281 C 18.453125 19.863281 18.207031 20.109375 18.207031 20.414062 L 18.207031 30.34375 C 18.207031 30.648438 18.453125 30.898438 18.757812 30.898438 L 22.070312 30.898438 C 22.375 30.898438 22.621094 30.648438 22.621094 30.34375 L 22.621094 20.414062 C 22.621094 20.109375 22.375 19.863281 22.070312 19.863281 Z M 22.070312 19.863281 "/>
<path style=" stroke:none;fill-rule:nonzero;fill:rgb(68.235296%,67.843139%,70.19608%);fill-opacity:1;" d="M 31.917969 17.917969 C 31.816406 17.753906 31.640625 17.65625 31.449219 17.65625 L 9.378906 17.65625 C 9.1875 17.65625 9.011719 17.753906 8.910156 17.917969 C 8.808594 18.078125 8.800781 18.28125 8.886719 18.453125 L 9.988281 20.660156 C 10.082031 20.847656 10.273438 20.964844 10.484375 20.964844 L 30.34375 20.964844 C 30.554688 20.964844 30.746094 20.847656 30.839844 20.660156 L 31.941406 18.453125 C 32.027344 18.28125 32.019531 18.078125 31.917969 17.917969 Z M 31.917969 17.917969 "/>
<path style=" stroke:none;fill-rule:nonzero;fill:rgb(68.235296%,67.843139%,70.19608%);fill-opacity:1;" d="M 26.484375 29.792969 L 14.34375 29.792969 C 14.039062 29.792969 13.792969 30.039062 13.792969 30.34375 L 13.792969 31.449219 C 13.792969 31.753906 14.039062 32 14.34375 32 C 14.648438 32 14.898438 31.753906 14.898438 31.449219 L 14.898438 30.898438 L 25.929688 30.898438 L 25.929688 31.449219 C 25.929688 31.753906 26.175781 32 26.484375 32 C 26.789062 32 27.035156 31.753906 27.035156 31.449219 L 27.035156 30.34375 C 27.035156 30.039062 26.789062 29.792969 26.484375 29.792969 Z M 26.484375 29.792969 "/>
<path style=" stroke:none;fill-rule:nonzero;fill:rgb(0%,59.215689%,61.56863%);fill-opacity:1;" d="M 5.515625 32 C 5.210938 32 4.964844 31.753906 4.964844 31.449219 L 4.964844 28.136719 C 4.964844 27.832031 5.210938 27.585938 5.515625 27.585938 C 5.820312 27.585938 6.070312 27.832031 6.070312 28.136719 L 6.070312 31.449219 C 6.070312 31.753906 5.820312 32 5.515625 32 Z M 5.515625 32 "/>
<path style=" stroke:none;fill-rule:nonzero;fill:rgb(0%,59.215689%,61.56863%);fill-opacity:1;" d="M 5.515625 19.863281 C 4.726562 19.863281 3.972656 20.203125 3.445312 20.800781 C 3.003906 21.308594 2.757812 21.957031 2.757812 22.621094 C 2.757812 24.140625 3.996094 25.378906 5.515625 25.378906 C 7.039062 25.378906 8.277344 24.140625 8.277344 22.621094 C 8.277344 21.957031 8.03125 21.308594 7.585938 20.800781 C 7.0625 20.203125 6.308594 19.863281 5.515625 19.863281 Z M 5.515625 24.277344 C 4.605469 24.277344 3.863281 23.535156 3.863281 22.621094 C 3.863281 22.222656 4.011719 21.832031 4.277344 21.527344 C 4.589844 21.171875 5.042969 20.964844 5.515625 20.964844 C 5.992188 20.964844 6.445312 21.171875 6.757812 21.527344 C 7.023438 21.832031 7.171875 22.222656 7.171875 22.621094 C 7.171875 23.535156 6.429688 24.277344 5.515625 24.277344 Z M 5.515625 24.277344 "/>
<path style=" stroke:none;fill-rule:nonzero;fill:rgb(0%,59.215689%,61.56863%);fill-opacity:1;" d="M 5.515625 7.171875 C 7.039062 7.171875 8.277344 5.933594 8.277344 4.414062 C 8.277344 2.894531 7.039062 1.65625 5.515625 1.65625 C 3.996094 1.65625 2.757812 2.894531 2.757812 4.414062 C 2.757812 5.933594 3.996094 7.171875 5.515625 7.171875 Z M 5.515625 2.757812 C 6.429688 2.757812 7.171875 3.5 7.171875 4.414062 C 7.171875 5.328125 6.429688 6.070312 5.515625 6.070312 C 4.605469 6.070312 3.863281 5.328125 3.863281 4.414062 C 3.863281 3.5 4.605469 2.757812 5.515625 2.757812 Z M 5.515625 2.757812 "/>
<path style=" stroke:none;fill-rule:nonzero;fill:rgb(0%,59.215689%,61.56863%);fill-opacity:1;" d="M 5.125 4.804688 C 5.179688 4.855469 5.242188 4.894531 5.308594 4.921875 C 5.375 4.949219 5.445312 4.964844 5.515625 4.964844 C 5.589844 4.964844 5.660156 4.949219 5.726562 4.921875 C 5.792969 4.894531 5.855469 4.855469 5.910156 4.804688 C 5.957031 4.75 6.003906 4.691406 6.03125 4.625 C 6.058594 4.558594 6.070312 4.484375 6.070312 4.414062 C 6.070312 4.375 6.0625 4.34375 6.058594 4.304688 C 6.050781 4.269531 6.042969 4.238281 6.023438 4.203125 C 6.015625 4.171875 5.996094 4.136719 5.976562 4.105469 C 5.957031 4.078125 5.929688 4.050781 5.910156 4.023438 C 5.855469 3.972656 5.792969 3.933594 5.726562 3.90625 C 5.59375 3.851562 5.441406 3.851562 5.308594 3.90625 C 5.242188 3.933594 5.179688 3.972656 5.125 4.023438 C 5.027344 4.125 4.964844 4.265625 4.964844 4.414062 C 4.964844 4.484375 4.980469 4.558594 5.007812 4.625 C 5.039062 4.691406 5.074219 4.75 5.125 4.804688 Z M 5.125 4.804688 "/>
<path style=" stroke:none;fill-rule:nonzero;fill:rgb(0%,59.215689%,61.56863%);fill-opacity:1;" d="M 5.910156 22.230469 C 5.882812 22.207031 5.855469 22.179688 5.828125 22.164062 C 5.792969 22.140625 5.761719 22.125 5.726562 22.113281 C 5.695312 22.097656 5.660156 22.085938 5.628906 22.078125 C 5.445312 22.042969 5.257812 22.101562 5.125 22.230469 C 5.074219 22.285156 5.039062 22.339844 5.007812 22.410156 C 4.980469 22.476562 4.964844 22.550781 4.964844 22.621094 C 4.964844 22.769531 5.019531 22.90625 5.125 23.011719 C 5.179688 23.0625 5.242188 23.101562 5.308594 23.128906 C 5.375 23.15625 5.445312 23.171875 5.515625 23.171875 C 5.667969 23.171875 5.804688 23.117188 5.910156 23.011719 C 5.957031 22.957031 5.996094 22.898438 6.023438 22.832031 C 6.050781 22.765625 6.070312 22.691406 6.070312 22.621094 C 6.070312 22.550781 6.050781 22.476562 6.023438 22.410156 C 5.996094 22.339844 5.957031 22.285156 5.910156 22.230469 Z M 5.910156 22.230469 "/>
<path style=" stroke:none;fill-rule:nonzero;fill:rgb(34.117648%,33.333334%,36.078432%);fill-opacity:1;" d="M 10.484375 32 L 0.550781 32 C 0.246094 32 0 31.753906 0 31.449219 C 0 31.144531 0.246094 30.898438 0.550781 30.898438 L 10.484375 30.898438 C 10.789062 30.898438 11.035156 31.144531 11.035156 31.449219 C 11.035156 31.753906 10.789062 32 10.484375 32 Z M 10.484375 32 "/>
</g>
</svg>
